<?xml version="1.0" encoding="utf-8"?><svg xmlns="http://www.w3.org/2000/svg" xmlns:xlink="http://www.w3.org/1999/xlink"><symbol viewBox="0 0 48 48" id="001-shopping-purse-icon" xmlns="http://www.w3.org/2000/svg"><path d="M15.733 20.125a2 2 0 0 0 2-2v-7.8A6.332 6.332 0 0 1 24.058 4a6.333 6.333 0 0 1 6.325 6.325v7.8a2 2 0 0 0 4 0v-7.8C34.383 4.632 29.751 0 24.058 0c-5.692 0-10.324 4.632-10.324 10.325v7.8a2 2 0 0 0 1.999 2z"/><path d="M47 15.631H36.383v2.494c0 2.206-1.794 4-4 4-2.205 0-4-1.794-4-4v-2.494h-8.649v2.494c0 2.206-1.794 4-4 4s-4-1.794-4-4v-2.494H1c-.552 0-.893.435-.762.971L7.235 45.1C7.658 46.702 9.343 48 11 48h26c1.658 0 3.342-1.299 3.767-2.9l6.996-28.498c.13-.537-.21-.971-.763-.971z"/></symbol><symbol viewBox="0 0 57.231 57.231" id="002-find" xmlns="http://www.w3.org/2000/svg"><path d="M23.945 9.373a2.993 2.993 0 0 0 0 5.984 9.415 9.415 0 0 1 8.524 5.333 2.993 2.993 0 0 0 5.379-2.624c-2.613-5.362-7.942-8.693-13.903-8.693z"/><path d="M56.135 50.469l-9.971-9.972c2.952-4.152 4.705-9.213 4.705-14.685 0-14.025-11.41-25.435-25.435-25.435S0 11.787 0 25.812c0 14.024 11.409 25.434 25.434 25.434 5.859 0 11.245-2.01 15.549-5.351l9.862 9.862a3.733 3.733 0 0 0 2.645 1.096 3.738 3.738 0 0 0 2.645-6.384zM5.986 25.813c0-10.725 8.726-19.45 19.45-19.45s19.45 8.725 19.45 19.45c0 4.462-1.525 8.566-4.063 11.852a19.64 19.64 0 0 1-2.827 2.973c-3.392 2.878-7.773 4.625-12.56 4.625-10.725-.001-19.45-8.726-19.45-19.45z"/></symbol><symbol viewBox="0 0 512 512" id="003-user" xmlns="http://www.w3.org/2000/svg"><path d="M437.02 330.98c-27.883-27.882-61.071-48.523-97.281-61.018C378.521 243.251 404 198.548 404 148 404 66.393 337.607 0 256 0S108 66.393 108 148c0 50.548 25.479 95.251 64.262 121.962-36.21 12.495-69.398 33.136-97.281 61.018C26.629 379.333 0 443.62 0 512h40c0-119.103 96.897-216 216-216s216 96.897 216 216h40c0-68.38-26.629-132.667-74.98-181.02zM256 256c-59.551 0-108-48.448-108-108S196.449 40 256 40s108 48.448 108 108-48.449 108-108 108z"/></symbol><symbol viewBox="0 0 37.334 37.334" id="004-id-card" xmlns="http://www.w3.org/2000/svg"><path d="M14.911 25.001H4.227c0-2.176 1.428-4.031 3.436-4.767-.431-.438-.744-1.104-.901-2.109-.207.042-.528-.195-.623-.556-.097-.367-.16-.96.049-1.017a.258.258 0 0 1 .19.028v-1.02c0-1.606-.378-2.55 2.247-2.819l-.023-.006s2.069-.199 2.614-.689c0 0 .015.414.235.868 1.211.464 1.363 1.537 1.328 2.647v1.021a.261.261 0 0 1 .191-.028c.209.057.098.672.002 1.041-.094.357-.365.57-.57.532-.153.957-.489 1.644-.955 2.101 2.023.727 3.464 2.585 3.464 4.773zM37.334 6.5v24.333H0V6.5h37.334zm-2 2H2v20.333h33.334V8.5zm-2.667 4H17.834v2h14.833v-2zm0 5.167H17.834v2h14.833v-2zm0 5.168H17.834v2h14.833v-2z"/></symbol><symbol viewBox="0 0 482 482" id="005-box" xmlns="http://www.w3.org/2000/svg"><path d="M279.8 244.8l-21.6 12.5V482l194.5-112.3V145zM315 43.3L240.2 0 40.3 115.4l74.9 43.3zm125 72.1l-86.2-49.1L154 181.7l11.4 5.9 74.8 43.2 74.4-42.9zM138.9 264.3l-35.8-18.4v-57.2l-73.8-42.5v223.1l193.1 111.5V257.7l-83.5-48.1z"/></symbol><symbol viewBox="0 0 364.065 364.065" id="006-mail" xmlns="http://www.w3.org/2000/svg"><path d="M349.927 138.375v.16s0-.48-.48-.64l-18.48-14.8v-55.6c0-7.776-6.304-14.08-14.08-14.08h-72.8l-58.48-46.88a6 6 0 0 0-7.52 0l-58.48 46.88h-72.8c-7.776 0-14.08 6.304-14.08 14.08v55.52l-18.48 14.8a5.646 5.646 0 0 0-.56.72 60.797 60.797 0 0 0-13.68 39.36v124.96c0 27.04 14.72 56 56 56h252c27.04 0 56-14.72 56-56v-124.96a55.438 55.438 0 0 0-14.08-39.52zm-18.88-.08l4.64 3.76-4.64 3.28v-7.04zm-149.12-119.28l42.96 34.48h-85.92l42.96-34.48zm-137.04 48.48a2 2 0 0 1 2-2h270.08a2 2 0 0 1 2 2v86.4l-137.04 95.52-137.04-95.52v-86.4zm-12.08 70.96v7.04l-4.64-3.44 4.64-3.6zm-20.88 164.24v-124.88a51.437 51.437 0 0 1 7.44-27.04l120 83.76-122.08 91.52a53.052 53.052 0 0 1-5.36-23.36zm296.08 44.08l-252.16-.08a43.28 43.28 0 0 1-31.44-10.88l125.52-94 28.56 20.24h1.04c.753.351 1.57.541 2.4.56a6.004 6.004 0 0 0 2.4-.56h1.04l28-19.52 125.52 93.76a48.002 48.002 0 0 1-30.88 10.48zm43.84-168.88v124.88a49.12 49.12 0 0 1-5.44 24l-122.64-91.84 120.72-84.16a46.792 46.792 0 0 1 7.36 27.12z"/><path d="M215.767 92.295h-132a6.04 6.04 0 1 0 0 12.08h132a6.04 6.04 0 1 0 0-12.08zm64.32 44.16H83.767a6.04 6.04 0 1 0 0 12.08h196.32a6.04 6.04 0 1 0 0-12.08z"/></symbol><symbol viewBox="0 0 55.867 55.867" id="007-star" xmlns="http://www.w3.org/2000/svg"><path d="M55.818 21.578a1.002 1.002 0 0 0-.808-.681l-18.09-2.629-8.09-16.392a.998.998 0 0 0-1.792 0l-8.091 16.393-18.09 2.629a1.002 1.002 0 0 0-.555 1.705l13.091 12.76-3.091 18.018c-.064.375.09.754.397.978a.992.992 0 0 0 1.053.076l16.182-8.506 16.18 8.506a1 1 0 0 0 1.451-1.054l-3.09-18.017 13.091-12.761c.272-.267.37-.664.252-1.025z"/></symbol><symbol viewBox="0 0 111.577 111.577" id="008-info" xmlns="http://www.w3.org/2000/svg"><path d="M78.962 99.536l-1.559 6.373c-4.677 1.846-8.413 3.251-11.195 4.217-2.785.969-6.021 1.451-9.708 1.451-5.662 0-10.066-1.387-13.207-4.142-3.141-2.766-4.712-6.271-4.712-10.523 0-1.646.114-3.339.351-5.064.239-1.727.619-3.672 1.139-5.846l5.845-20.688c.52-1.981.962-3.858 1.316-5.633.359-1.764.532-3.387.532-4.848 0-2.642-.547-4.49-1.636-5.529-1.089-1.036-3.167-1.562-6.252-1.562-1.511 0-3.064.242-4.647.71-1.59.47-2.949.924-4.09 1.346l1.563-6.378c3.829-1.559 7.489-2.894 10.99-4.002 3.501-1.111 6.809-1.667 9.938-1.667 5.623 0 9.962 1.359 13.009 4.077 3.047 2.72 4.57 6.246 4.57 10.591 0 .899-.1 2.483-.315 4.747-.21 2.269-.601 4.348-1.171 6.239l-5.82 20.605c-.477 1.655-.906 3.547-1.279 5.676-.385 2.115-.569 3.731-.569 4.815 0 2.736.61 4.604 1.833 5.597 1.232.993 3.354 1.487 6.368 1.487 1.415 0 3.025-.251 4.814-.744 1.784-.493 3.085-.926 3.892-1.305zm1.476-86.506c0 3.59-1.353 6.656-4.072 9.177-2.712 2.53-5.98 3.796-9.803 3.796-3.835 0-7.111-1.266-9.854-3.796-2.738-2.522-4.11-5.587-4.11-9.177 0-3.583 1.372-6.654 4.11-9.207C59.447 1.274 62.729 0 66.563 0c3.822 0 7.091 1.277 9.803 3.823 2.721 2.553 4.072 5.625 4.072 9.207z"/></symbol><symbol viewBox="0 0 55.867 55.867" id="009-star-1" xmlns="http://www.w3.org/2000/svg"><path d="M11.287 54.548a.997.997 0 0 1-.985-1.169l3.091-18.018L.302 22.602a1.001 1.001 0 0 1 .555-1.705l18.09-2.629 8.091-16.393a.996.996 0 1 1 1.792 0l8.09 16.393 18.091 2.629a1.002 1.002 0 0 1 .555 1.705L42.475 35.363l3.09 18.017c.064.375-.09.754-.397.978a.993.993 0 0 1-1.054.076l-16.18-8.506-16.182 8.506a1.008 1.008 0 0 1-.465.114zM3.149 22.584l12.016 11.713a1 1 0 0 1 .287.885L12.615 51.72l14.854-7.808a.996.996 0 0 1 .931 0l14.852 7.808-2.836-16.538a1 1 0 0 1 .287-.885l12.016-11.713-16.605-2.413a1 1 0 0 1-.753-.547L27.934 4.578l-7.427 15.047a1 1 0 0 1-.753.547L3.149 22.584z"/></symbol></svg>